# Aspose.3D Wavefront OBJ Exporter
# Copyright 2004-2021 Aspose Pty Ltd.
# File created: 06/20/2021 07:40:48

mtllib material.lib

#
# object Creeper
#

v -4 -7 1.99999942712008608
v 4 -7 1.99999942712008608
v -4 -7 -2.00000057287991417
v 4 -7 -2.00000057287991417
v -4 5 1.99999942712008864
v 4 5 1.99999942712008864
v -4 5 -2.0000005728799115
v 4 5 -2.0000005728799115
v -4 4.99999999999999824 3.99999990395724672
v 4 4.99999999999999824 3.99999990395724672
v -4 5 -4.0000000960427533
v 4 5 -4.0000000960427533
v -4 13 3.99999990395724848
v 4 13 3.99999990395724848
v -4 13 -4.00000009604275152
v 4 13 -4.00000009604275152
v -4 -13.00000000000000177 5.99999990395724224
v -2.384185791015625E-07 -13.00000000000000177 5.99999990395724224
v -4 -13 1.99999990395724288
v -2.384185791015625E-07 -13 1.99999990395724288
v -4 -7.00000000000000177 5.999999903957244
v -2.384185791015625E-07 -7.00000000000000177 5.999999903957244
v -4 -7.00000000000000088 1.99999990395724432
v -2.384185791015625E-07 -7.00000000000000088 1.99999990395724432
v 0 -13.00000000000000177 5.99999990395724224
v 4 -13.00000000000000177 5.99999990395724224
v 0 -13 1.99999990395724288
v 4 -13 1.99999990395724288
v 0 -7.00000000000000177 5.999999903957244
v 4 -7.00000000000000177 5.999999903957244
v 0 -7.00000000000000088 1.99999990395724432
v 4 -7.00000000000000088 1.99999990395724432
v -4 -13 -2.00000009604275685
v -2.384185791015625E-07 -13 -2.00000009604275685
v -4 -13 -6.00000009604275774
v -2.384185791015625E-07 -13 -6.00000009604275774
v -4 -7 -2.00000009604275597
v -2.384185791015625E-07 -7 -2.00000009604275597
v -4 -6.99999999999999904 -6.00000009604275597
v -2.384185791015625E-07 -6.99999999999999904 -6.00000009604275597
v 0 -13 -2.00000009604275685
v 4 -13 -2.00000009604275685
v 0 -13 -6.00000009604275774
v 4 -13 -6.00000009604275774
v 0 -7 -2.00000009604275597
v 4 -7 -2.00000009604275597
v 0 -6.99999999999999904 -6.00000009604275597
v 4 -6.99999999999999904 -6.00000009604275597
# 48 vertices

vn 0 -1 -2.220446049250313E-16
vn 0 -1 -2.220446049250313E-16
vn 0 -1 -2.220446049250313E-16
vn 0 -1 -2.220446049250313E-16
vn 0 1 2.220446049250313E-16
vn 0 1 2.220446049250313E-16
vn 0 1 2.220446049250313E-16
vn 0 1 2.220446049250313E-16
vn 0 -2.220446049250313E-16 1
vn 0 -2.220446049250313E-16 1
vn 0 -2.220446049250313E-16 1
vn 0 -2.220446049250313E-16 1
vn 1 0 0
vn 1 0 0
vn 1 0 0
vn 1 0 0
vn 0 2.220446049250313E-16 -1
vn 0 2.220446049250313E-16 -1
vn 0 2.220446049250313E-16 -1
vn 0 2.220446049250313E-16 -1
vn -1 0 0
vn -1 0 0
vn -1 0 0
vn -1 0 0
vn 0 -1 -2.220446049250313E-16
vn 0 -1 -2.220446049250313E-16
vn 0 -1 -2.220446049250313E-16
vn 0 -1 -2.220446049250313E-16
vn 0 1 2.220446049250313E-16
vn 0 1 2.220446049250313E-16
vn 0 1 2.220446049250313E-16
vn 0 1 2.220446049250313E-16
vn 0 -2.220446049250313E-16 1
vn 0 -2.220446049250313E-16 1
vn 0 -2.220446049250313E-16 1
vn 0 -2.220446049250313E-16 1
vn 1 0 0
vn 1 0 0
vn 1 0 0
vn 1 0 0
vn 0 2.220446049250313E-16 -1
vn 0 2.220446049250313E-16 -1
vn 0 2.220446049250313E-16 -1
vn 0 2.220446049250313E-16 -1
vn -1 0 0
vn -1 0 0
vn -1 0 0
vn -1 0 0
vn 0 -1 -2.220446049250313E-16
vn 0 -1 -2.220446049250313E-16
vn 0 -1 -2.220446049250313E-16
vn 0 -1 -2.220446049250313E-16
vn 0 1 2.220446049250313E-16
vn 0 1 2.220446049250313E-16
vn 0 1 2.220446049250313E-16
vn 0 1 2.220446049250313E-16
vn 0 -2.220446049250313E-16 1
vn 0 -2.220446049250313E-16 1
vn 0 -2.220446049250313E-16 1
vn 0 -2.220446049250313E-16 1
vn 1 0 0
vn 1 0 0
vn 1 0 0
vn 1 0 0
vn 0 2.220446049250313E-16 -1
vn 0 2.220446049250313E-16 -1
vn 0 2.220446049250313E-16 -1
vn 0 2.220446049250313E-16 -1
vn -1 0 0
vn -1 0 0
vn -1 0 0
vn -1 0 0
vn 0 -1 -2.220446049250313E-16
vn 0 -1 -2.220446049250313E-16
vn 0 -1 -2.220446049250313E-16
vn 0 -1 -2.220446049250313E-16
vn 0 1 2.220446049250313E-16
vn 0 1 2.220446049250313E-16
vn 0 1 2.220446049250313E-16
vn 0 1 2.220446049250313E-16
vn 0 -2.220446049250313E-16 1
vn 0 -2.220446049250313E-16 1
vn 0 -2.220446049250313E-16 1
vn 0 -2.220446049250313E-16 1
vn 1 0 0
vn 1 0 0
vn 1 0 0
vn 1 0 0
vn 0 2.220446049250313E-16 -1
vn 0 2.220446049250313E-16 -1
vn 0 2.220446049250313E-16 -1
vn 0 2.220446049250313E-16 -1
vn -1 0 0
vn -1 0 0
vn -1 0 0
vn -1 0 0
vn 0 -1 -2.220446049250313E-16
vn 0 -1 -2.220446049250313E-16
vn 0 -1 -2.220446049250313E-16
vn 0 -1 -2.220446049250313E-16
vn 0 1 2.220446049250313E-16
vn 0 1 2.220446049250313E-16
vn 0 1 2.220446049250313E-16
vn 0 1 2.220446049250313E-16
vn 0 -2.220446049250313E-16 1
vn 0 -2.220446049250313E-16 1
vn 0 -2.220446049250313E-16 1
vn 0 -2.220446049250313E-16 1
vn 1 0 0
vn 1 0 0
vn 1 0 0
vn 1 0 0
vn 0 2.220446049250313E-16 -1
vn 0 2.220446049250313E-16 -1
vn 0 2.220446049250313E-16 -1
vn 0 2.220446049250313E-16 -1
vn -1 0 0
vn -1 0 0
vn -1 0 0
vn -1 0 0
vn 0 -1 -2.220446049250313E-16
vn 0 -1 -2.220446049250313E-16
vn 0 -1 -2.220446049250313E-16
vn 0 -1 -2.220446049250313E-16
vn 0 1 2.220446049250313E-16
vn 0 1 2.220446049250313E-16
vn 0 1 2.220446049250313E-16
vn 0 1 2.220446049250313E-16
vn 0 -2.220446049250313E-16 1
vn 0 -2.220446049250313E-16 1
vn 0 -2.220446049250313E-16 1
vn 0 -2.220446049250313E-16 1
vn 1 0 0
vn 1 0 0
vn 1 0 0
vn 1 0 0
vn 0 2.220446049250313E-16 -1
vn 0 2.220446049250313E-16 -1
vn 0 2.220446049250313E-16 -1
vn 0 2.220446049250313E-16 -1
vn -1 0 0
vn -1 0 0
vn -1 0 0
vn -1 0 0
# 144 vertex normals

vt 0.4375 0.75 0
vt 0.4375 0.6875 0
vt 0.3125 0.6875 0
vt 0.3125 0.75 0
vt 0.5625 0.75 0
vt 0.3125 0.5 0
vt 0.625 0.6875 0
vt 0.5 0.6875 0
vt 0.4375 0.5 0
vt 0.4375 0.6875 0
vt 0.4375 0.75 0
vt 0.25 0.5 0
vt 0.3125 0.5 0
vt 0.3125 0.6875 0
vt 0.25 0.6875 0
vt 0.56271034479141232 0.6875 0
vt 0.5 0.5 0
vt 0.4375 0.5 0
vt 0.4375 0.6875 0
vt 0.3125 0.6875 0
vt 0.625 0.5 0
vt 0.5 0.5 0
vt 0.5 0.6875 0
vt 0.4375 0.6875 0
vt 0.25 1 0
vt 0.25 0.875 0
vt 0.125 0.875 0
vt 0.125 1 0
vt 0.375 1 0
vt 0.125 0.75 0
vt 0.5 0.875 0
vt 0.375 0.875 0
vt 0.25 0.75 0
vt 0.25 0.875 0
vt 0.25 1 0
vt 0 0.75 0
vt 0.125 0.75 0
vt 0.1249999850988388 0.875 0
vt 0 0.875 0
vt 0.375 0.875 0
vt 0.375 0.75 0
vt 0.25 0.75 0
vt 0.25 0.875 0
vt 0.125 0.875 0
vt 0.5 0.75 0
vt 0.375 0.75 0
vt 0.375 0.875 0
vt 0.25 0.875 0
vt 0.25 0.593815803527832 0
vt 0.125 0.6875 0
vt 0.0625 0.6875 0
vt 0.0625 0.75 0
vt 0.1875 0.593815803527832 0
vt 0.0625 0.593815803527832 0
vt 0.25 0.6875 0
vt 0.1875 0.6875 0
vt 0.125 0.593815803527832 0
vt 0.125 0.6875 0
vt 0.125 0.75 0
vt 0.1875 0.593815803527832 0
vt 0.125 0.593815803527832 0
vt 0 0.593815803527832 0
vt 0.0625 0.593815803527832 0
vt 0.1875 0.6875 0
vt 0.0625 0.6875 0
vt 0 0.6875 0
vt 0.125 0.6875 0
vt 0.0625 0.6875 0
vt 0.125 0.75 0
vt 0.1875 0.75 0
vt 0.1875 0.6875 0
vt 0.125 0.6875 0
vt 0.25 0.593815803527832 0
vt 0.125 0.6875 0
vt 0.0625 0.6875 0
vt 0.0625 0.75 0
vt 0.1875 0.593815803527832 0
vt 0.0625 0.593815803527832 0
vt 0.25 0.6875 0
vt 0.1875 0.6875 0
vt 0.125 0.593815803527832 0
vt 0.125 0.6875 0
vt 0.125 0.75 0
vt 0.1875 0.593815803527832 0
vt 0.125 0.593815803527832 0
vt 0 0.593815803527832 0
vt 0.0625 0.593815803527832 0
vt 0.1875 0.6875 0
vt 0.0625 0.6875 0
vt 0 0.6875 0
vt 0.125 0.6875 0
vt 0.0625 0.6875 0
vt 0.125 0.75 0
vt 0.1875 0.75 0
vt 0.1875 0.6875 0
vt 0.125 0.6875 0
vt 0.25 0.593815803527832 0
vt 0.125 0.6875 0
vt 0.0625 0.6875 0
vt 0.0625 0.75 0
vt 0.1875 0.593815803527832 0
vt 0.0625 0.593815803527832 0
vt 0.25 0.6875 0
vt 0.1875 0.6875 0
vt 0.125 0.593815803527832 0
vt 0.125 0.6875 0
vt 0.125 0.75 0
vt 0.1875 0.593815803527832 0
vt 0.125 0.593815803527832 0
vt 0 0.593815803527832 0
vt 0.0625 0.593815803527832 0
vt 0.1875 0.6875 0
vt 0.0625 0.6875 0
vt 0 0.6875 0
vt 0.125 0.6875 0
vt 0.0625 0.6875 0
vt 0.125 0.75 0
vt 0.1875 0.75 0
vt 0.1875 0.6875 0
vt 0.125 0.6875 0
vt 0.25 0.593815803527832 0
vt 0.125 0.6875 0
vt 0.0625 0.6875 0
vt 0.0625 0.75 0
vt 0.1875 0.593815803527832 0
vt 0.0625 0.593815803527832 0
vt 0.25 0.6875 0
vt 0.1875 0.6875 0
vt 0.125 0.593815803527832 0
vt 0.125 0.6875 0
vt 0.125 0.75 0
vt 0.1875 0.593815803527832 0
vt 0.125 0.593815803527832 0
vt 0 0.593815803527832 0
vt 0.0625 0.593815803527832 0
vt 0.1875 0.6875 0
vt 0.0625 0.6875 0
vt 0 0.6875 0
vt 0.125 0.6875 0
vt 0.0625 0.6875 0
vt 0.125 0.75 0
vt 0.1875 0.75 0
vt 0.1875 0.6875 0
vt 0.125 0.6875 0
# 144 texture coords

g Creeper
usemtl 02 - Default
s 1
f 1/2/1 3/1/2 4/5/3 2/16/4
f 5/3/5 6/10/6 8/11/7 7/4/8
f 1/6/9 2/9/10 6/19/11 5/20/12
f 2/18/13 4/17/14 8/23/15 6/24/16
f 4/22/17 3/21/18 7/7/19 8/8/20
f 3/12/21 1/13/22 5/14/23 7/15/24
f 9/26/25 11/25/26 12/29/27 10/40/28
f 13/27/29 14/34/30 16/35/31 15/28/32
f 9/30/33 10/33/34 14/43/35 13/44/36
f 10/42/37 12/41/38 16/47/39 14/48/40
f 12/46/41 11/45/42 15/31/43 16/32/44
f 11/36/45 9/37/46 13/38/47 15/39/48
f 17/50/49 19/69/50 20/70/51 18/64/52
f 21/51/53 22/58/54 24/59/55 23/52/56
f 17/54/57 18/57/58 22/67/59 21/68/60
f 18/61/61 20/60/62 24/71/63 22/72/64
f 20/53/65 19/49/66 23/55/67 24/56/68
f 19/62/69 17/63/70 21/65/71 23/66/72
f 25/74/73 27/93/74 28/94/75 26/88/76
f 29/75/77 30/82/78 32/83/79 31/76/80
f 25/78/81 26/81/82 30/91/83 29/92/84
f 26/85/85 28/84/86 32/95/87 30/96/88
f 28/77/89 27/73/90 31/79/91 32/80/92
f 27/86/93 25/87/94 29/89/95 31/90/96
f 33/98/97 35/117/98 36/118/99 34/112/100
f 37/99/101 38/106/102 40/107/103 39/100/104
f 33/102/105 34/105/106 38/115/107 37/116/108
f 34/109/109 36/108/110 40/119/111 38/120/112
f 36/101/113 35/97/114 39/103/115 40/104/116
f 35/110/117 33/111/118 37/113/119 39/114/120
f 41/122/121 43/141/122 44/142/123 42/136/124
f 45/123/125 46/130/126 48/131/127 47/124/128
f 41/126/129 42/129/130 46/139/131 45/140/132
f 42/133/133 44/132/134 48/143/135 46/144/136
f 44/125/137 43/121/138 47/127/139 48/128/140
f 43/134/141 41/135/142 45/137/143 47/138/144
#36 polygons

