# Made in Blockbench 4.1.3
mtllib materials.mtl

o head
v 0.40625 0.46875 -1.3125
v -0.40625 0.46875 -1.3125
v -0.40625 1.09375 -1.3125
v 0.40625 1.09375 -1.3125
v 0.40625 0.46875 -0.75
v 0.40625 1.09375 -0.75
v -0.40625 0.46875 -0.75
v -0.40625 1.09375 -0.75
vt 0.140625 0.609375
vt 0.34375 0.609375
vt 0.34375 0.765625
vt 0.140625 0.765625
vt 0 0.609375
vt 0.140625 0.609375
vt 0.140625 0.765625
vt 0 0.765625
vt 0.484375 0.609375
vt 0.6875 0.609375
vt 0.6875 0.765625
vt 0.484375 0.765625
vt 0.34375 0.609375
vt 0.484375 0.609375
vt 0.484375 0.765625
vt 0.34375 0.765625
vt 0.34375 0.90625
vt 0.140625 0.90625
vt 0.140625 0.765625
vt 0.34375 0.765625
vt 0.546875 0.765625
vt 0.34375 0.765625
vt 0.34375 0.90625
vt 0.546875 0.90625
vn 0 0 -1
vn 1 0 0
vn 0 0 1
vn -1 0 0
vn 0 1 0
vn 0 -1 0
usemtl none
f 1/1/1 2/2/1 3/3/1 4/4/1
f 5/5/2 1/6/2 4/7/2 6/8/2
f 7/9/3 5/10/3 6/11/3 8/12/3
f 2/13/4 7/14/4 8/15/4 3/16/4
f 8/17/5 6/18/5 4/19/5 3/20/5
f 2/21/6 1/22/6 5/23/6 7/24/6
o head
v 0.21875 0.46875 -1.4375
v -0.21875 0.46875 -1.4375
v -0.21875 0.78125 -1.4375
v 0.21875 0.78125 -1.4375
v 0.21875 0.46875 -1.3125
v 0.21875 0.78125 -1.3125
v -0.21875 0.46875 -1.3125
v -0.21875 0.78125 -1.3125
vt 0.734375 0.640625
vt 0.84375 0.640625
vt 0.84375 0.71875
vt 0.734375 0.71875
vt 0.703125 0.640625
vt 0.734375 0.640625
vt 0.734375 0.71875
vt 0.703125 0.71875
vt 0.875 0.640625
vt 0.984375 0.640625
vt 0.984375 0.71875
vt 0.875 0.71875
vt 0.84375 0.640625
vt 0.875 0.640625
vt 0.875 0.71875
vt 0.84375 0.71875
vt 0.84375 0.75
vt 0.734375 0.75
vt 0.734375 0.71875
vt 0.84375 0.71875
vt 0.953125 0.71875
vt 0.84375 0.71875
vt 0.84375 0.75
vt 0.953125 0.75
vn 0 0 -1
vn 1 0 0
vn 0 0 1
vn -1 0 0
vn 0 1 0
vn 0 -1 0
usemtl none
f 9/25/7 10/26/7 11/27/7 12/28/7
f 13/29/8 9/30/8 12/31/8 14/32/8
f 15/33/9 13/34/9 14/35/9 16/36/9
f 10/37/10 15/38/10 16/39/10 11/40/10
f 16/41/11 14/42/11 12/43/11 11/44/11
f 10/45/12 9/46/12 13/47/12 15/48/12
o head
v 0.53125 1.03125 -1.125
v 0.21875 1.03125 -1.125
v 0.21875 1.28125 -1.125
v 0.53125 1.28125 -1.125
v 0.53125 1.03125 -1.0625
v 0.53125 1.28125 -1.0625
v 0.21875 1.03125 -1.0625
v 0.21875 1.28125 -1.0625
vt 0.828125 0.53125
vt 0.90625 0.53125
vt 0.90625 0.59375
vt 0.828125 0.59375
vt 0.8125 0.53125
vt 0.828125 0.53125
vt 0.828125 0.59375
vt 0.8125 0.59375
vt 0.921875 0.53125
vt 1 0.53125
vt 1 0.59375
vt 0.921875 0.59375
vt 0.90625 0.53125
vt 0.921875 0.53125
vt 0.921875 0.59375
vt 0.90625 0.59375
vt 0.90625 0.609375
vt 0.828125 0.609375
vt 0.828125 0.59375
vt 0.90625 0.59375
vt 0.984375 0.59375
vt 0.90625 0.59375
vt 0.90625 0.609375
vt 0.984375 0.609375
vn 0 0 -1
vn 1 0 0
vn 0 0 1
vn -1 0 0
vn 0 1 0
vn 0 -1 0
usemtl none
f 17/49/13 18/50/13 19/51/13 20/52/13
f 21/53/14 17/54/14 20/55/14 22/56/14
f 23/57/15 21/58/15 22/59/15 24/60/15
f 18/61/16 23/62/16 24/63/16 19/64/16
f 24/65/17 22/66/17 20/67/17 19/68/17
f 18/69/18 17/70/18 21/71/18 23/72/18
o head
v -0.21875 1.03125 -1.125
v -0.53125 1.03125 -1.125
v -0.53125 1.28125 -1.125
v -0.21875 1.28125 -1.125
v -0.21875 1.03125 -1.0625
v -0.21875 1.28125 -1.0625
v -0.53125 1.03125 -1.0625
v -0.53125 1.28125 -1.0625
vt 0.828125 0.53125
vt 0.90625 0.53125
vt 0.90625 0.59375
vt 0.828125 0.59375
vt 0.8125 0.53125
vt 0.828125 0.53125
vt 0.828125 0.59375
vt 0.8125 0.59375
vt 0.921875 0.53125
vt 1 0.53125
vt 1 0.59375
vt 0.921875 0.59375
vt 0.90625 0.53125
vt 0.921875 0.53125
vt 0.921875 0.59375
vt 0.90625 0.59375
vt 0.90625 0.609375
vt 0.828125 0.609375
vt 0.828125 0.59375
vt 0.90625 0.59375
vt 0.984375 0.59375
vt 0.90625 0.59375
vt 0.90625 0.609375
vt 0.984375 0.609375
vn 0 0 -1
vn 1 0 0
vn 0 0 1
vn -1 0 0
vn 0 1 0
vn 0 -1 0
usemtl none
f 25/73/19 26/74/19 27/75/19 28/76/19
f 29/77/20 25/78/20 28/79/20 30/80/20
f 31/81/21 29/82/21 30/83/21 32/84/21
f 26/85/22 31/86/22 32/87/22 27/88/22
f 32/89/23 30/90/23 28/91/23 27/92/23
f 26/93/24 25/94/24 29/95/24 31/96/24
o body
v 0.59375 0.4687499999999998 0.8124999999999999
v -0.59375 0.4687499999999998 0.8124999999999999
v -0.59375 0.46875000000000017 -0.8125
v 0.59375 0.46875000000000017 -0.8125
v 0.59375 1.2812499999999998 0.8125000000000001
v 0.59375 1.2812500000000002 -0.8125
v -0.59375 1.2812499999999998 0.8125000000000001
v -0.59375 1.2812500000000002 -0.8125
vt 0.203125 0
vt 0.5 0
vt 0.5 0.40625
vt 0.203125 0.40625
vt 0 0
vt 0.203125 0
vt 0.203125 0.40625
vt 0 0.40625
vt 0.703125 0
vt 1 0
vt 1 0.40625
vt 0.703125 0.40625
vt 0.5 0
vt 0.703125 0
vt 0.703125 0.40625
vt 0.5 0.40625
vt 0.5 0.609375
vt 0.203125 0.609375
vt 0.203125 0.40625
vt 0.5 0.40625
vt 0.796875 0.40625
vt 0.5 0.40625
vt 0.5 0.609375
vt 0.796875 0.609375
vn 0 -1 -2.391249591500337e-16
vn 1 0 0
vn 0 1 2.7328566760003855e-16
vn -1 0 0
vn 0 0 -1
vn 0 -2.7328566760003855e-16 1
usemtl none
f 33/97/25 34/98/25 35/99/25 36/100/25
f 37/101/26 33/102/26 36/103/26 38/104/26
f 39/105/27 37/106/27 38/107/27 40/108/27
f 34/109/28 39/110/28 40/111/28 35/112/28
f 40/113/29 38/114/29 36/115/29 35/116/29
f 34/117/30 33/118/30 37/119/30 39/120/30
o leg0
v 0.53125 0 0.375
v 0.15625 0 0.375
v 0.15625 0.5625 0.375
v 0.53125 0.5625 0.375
v 0.53125 0 0.75
v 0.53125 0.5625 0.75
v 0.15625 0 0.75
v 0.15625 0.5625 0.75
vt 0.71875 0.765625
vt 0.8125 0.765625
vt 0.8125 0.90625
vt 0.71875 0.90625
vt 0.625 0.765625
vt 0.71875 0.765625
vt 0.71875 0.90625
vt 0.625 0.90625
vt 0.90625 0.765625
vt 1 0.765625
vt 1 0.90625
vt 0.90625 0.90625
vt 0.8125 0.765625
vt 0.90625 0.765625
vt 0.90625 0.90625
vt 0.8125 0.90625
vt 0.8125 1
vt 0.71875 1
vt 0.71875 0.90625
vt 0.8125 0.90625
vt 0.90625 0.90625
vt 0.8125 0.90625
vt 0.8125 1
vt 0.90625 1
vn 0 0 -1
vn 1 0 0
vn 0 0 1
vn -1 0 0
vn 0 1 0
vn 0 -1 0
usemtl none
f 41/121/31 42/122/31 43/123/31 44/124/31
f 45/125/32 41/126/32 44/127/32 46/128/32
f 47/129/33 45/130/33 46/131/33 48/132/33
f 42/133/34 47/134/34 48/135/34 43/136/34
f 48/137/35 46/138/35 44/139/35 43/140/35
f 42/141/36 41/142/36 45/143/36 47/144/36
o leg2
v 0.53125 0 -0.75
v 0.15625 0 -0.75
v 0.15625 0.5625 -0.75
v 0.53125 0.5625 -0.75
v 0.53125 0 -0.375
v 0.53125 0.5625 -0.375
v 0.15625 0 -0.375
v 0.15625 0.5625 -0.375
vt 0.71875 0.765625
vt 0.8125 0.765625
vt 0.8125 0.90625
vt 0.71875 0.90625
vt 0.625 0.765625
vt 0.71875 0.765625
vt 0.71875 0.90625
vt 0.625 0.90625
vt 0.90625 0.765625
vt 1 0.765625
vt 1 0.90625
vt 0.90625 0.90625
vt 0.8125 0.765625
vt 0.90625 0.765625
vt 0.90625 0.90625
vt 0.8125 0.90625
vt 0.8125 1
vt 0.71875 1
vt 0.71875 0.90625
vt 0.8125 0.90625
vt 0.90625 0.90625
vt 0.8125 0.90625
vt 0.8125 1
vt 0.90625 1
vn 0 0 -1
vn 1 0 0
vn 0 0 1
vn -1 0 0
vn 0 1 0
vn 0 -1 0
usemtl none
f 49/145/37 50/146/37 51/147/37 52/148/37
f 53/149/38 49/150/38 52/151/38 54/152/38
f 55/153/39 53/154/39 54/155/39 56/156/39
f 50/157/40 55/158/40 56/159/40 51/160/40
f 56/161/41 54/162/41 52/163/41 51/164/41
f 50/165/42 49/166/42 53/167/42 55/168/42
o leg3
v -0.15625 0 -0.4375
v -0.53125 0 -0.4375
v -0.53125 0.5625 -0.4375
v -0.15625 0.5625 -0.4375
v -0.15625 0 -0.0625
v -0.15625 0.5625 -0.0625
v -0.53125 0 -0.0625
v -0.53125 0.5625 -0.0625
vt 0.71875 0.765625
vt 0.8125 0.765625
vt 0.8125 0.90625
vt 0.71875 0.90625
vt 0.625 0.765625
vt 0.71875 0.765625
vt 0.71875 0.90625
vt 0.625 0.90625
vt 0.90625 0.765625
vt 1 0.765625
vt 1 0.90625
vt 0.90625 0.90625
vt 0.8125 0.765625
vt 0.90625 0.765625
vt 0.90625 0.90625
vt 0.8125 0.90625
vt 0.8125 1
vt 0.71875 1
vt 0.71875 0.90625
vt 0.8125 0.90625
vt 0.90625 0.90625
vt 0.8125 0.90625
vt 0.8125 1
vt 0.90625 1
vn 0 0 -1
vn 1 0 0
vn 0 0 1
vn -1 0 0
vn 0 1 0
vn 0 -1 0
usemtl none
f 57/169/43 58/170/43 59/171/43 60/172/43
f 61/173/44 57/174/44 60/175/44 62/176/44
f 63/177/45 61/178/45 62/179/45 64/180/45
f 58/181/46 63/182/46 64/183/46 59/184/46
f 64/185/47 62/186/47 60/187/47 59/188/47
f 58/189/48 57/190/48 61/191/48 63/192/48
o leg1
v -0.15625 0 0.125
v -0.53125 0 0.125
v -0.53125 0.5625 0.125
v -0.15625 0.5625 0.125
v -0.15625 0 0.5
v -0.15625 0.5625 0.5
v -0.53125 0 0.5
v -0.53125 0.5625 0.5
vt 0.71875 0.765625
vt 0.8125 0.765625
vt 0.8125 0.90625
vt 0.71875 0.90625
vt 0.625 0.765625
vt 0.71875 0.765625
vt 0.71875 0.90625
vt 0.625 0.90625
vt 0.90625 0.765625
vt 1 0.765625
vt 1 0.90625
vt 0.90625 0.90625
vt 0.8125 0.765625
vt 0.90625 0.765625
vt 0.90625 0.90625
vt 0.8125 0.90625
vt 0.8125 1
vt 0.71875 1
vt 0.71875 0.90625
vt 0.8125 0.90625
vt 0.90625 0.90625
vt 0.8125 0.90625
vt 0.8125 1
vt 0.90625 1
vn 0 0 -1
vn 1 0 0
vn 0 0 1
vn -1 0 0
vn 0 1 0
vn 0 -1 0
usemtl none
f 65/193/49 66/194/49 67/195/49 68/196/49
f 69/197/50 65/198/50 68/199/50 70/200/50
f 71/201/51 69/202/51 70/203/51 72/204/51
f 66/205/52 71/206/52 72/207/52 67/208/52
f 72/209/53 70/210/53 68/211/53 67/212/53
f 66/213/54 65/214/54 69/215/54 71/216/54