# Aspose.3D Wavefront OBJ Exporter
# Copyright 2004-2021 Aspose Pty Ltd.
# File created: 06/20/2021 16:43:28

mtllib material.lib

#
# object Chicken
#

v -2.99999969912738608 -2.49999976753399352 -5.99999993046459584
v 3.00000030087261393 -2.49999976753399352 -5.99999993046459584
v -2.99999969912738608 3.50000023246592648 -5.99999895294048624
v 3.00000030087261393 3.50000023246592648 -5.99999895294048624
v -2.99999969912738608 -2.500001070899474 2.00000006953529751
v 3.00000030087261393 -2.500001070899474 2.00000006953529751
v -2.99999969912738608 3.49999892910044608 2.00000104705940717
v 3.00000030087261393 3.49999892910044608 2.00000104705940717
v 3.00000006245403483 -0.49999993045462784 -5.00000008146039753
v 4.00000006245403483 -0.49999993045462784 -5.00000008146039753
v 3.00000006245403483 3.5000000695453188 -4.99999942977765776
v 4.00000006245403483 3.5000000695453188 -4.99999942977765776
v 3.00000006245403483 -0.50000090797873816 0.99999991853952256
v 4.00000006245403483 -0.50000090797873816 0.99999991853952256
v 3.00000006245403483 3.49999909202120832 1.00000057022226229
v 4.00000006245403483 3.49999909202120832 1.00000057022226229
v -1.00000005675525471 1.5000000337707324 3.99999976754392688
v 1.00000000284939005 1.5000000337707324 3.99999976754392688
v -1.00000005675525471 3.50000003377070536 4.00000009338529682
v 1.00000000284939005 3.50000003377070536 4.00000009338529682
v -1.00000005675525471 1.49999987085004728 4.99999976754391456
v 1.00000000284939005 1.49999987085004728 4.99999976754391456
v -1.00000005675525471 3.4999998708500204 5.00000009338528439
v 1.00000000284939005 3.4999998708500204 5.00000009338528439
v -1.99999993754596512 3.50000003377070536 4.00000009338529682
v 1.99999994324474528 3.50000003377070536 4.00000009338529682
v -1.99999993754596512 5.5000000337706796 4.00000041922666849
v 1.99999994324474528 5.5000000337706796 4.00000041922666849
v -1.99999993754596512 3.49999970792933544 6.00000009338527018
v 1.99999994324474528 3.49999970792933544 6.00000009338527018
v -1.99999993754596512 5.4999997079293088 6.00000041922664184
v 1.99999994324474528 5.4999997079293088 6.00000041922664184
v -1.99999993754596512 1.50000004569562928 0.9999997675438896
v 1.99999994324474528 1.50000004569562928 0.9999997675438896
v -1.99999993754596512 7.5000000456955496 1.00000074506800018
v 1.99999994324474528 7.5000000456955496 1.00000074506800018
v -1.99999993754596512 1.49999955693357424 3.99999976754385056
v 1.99999994324474528 1.49999955693357424 3.99999976754385056
v -1.99999993754596512 7.49999955693349472 4.00000074506796021
v 1.99999994324474528 7.49999955693349472 4.00000074506796021
v -2.99999993754596512 -0.49999993045462784 -5.00000008146039753
v -3.99999969912738608 -0.49999993045462784 -5.00000008146039753
v -2.99999993754596512 3.5000000695453188 -4.99999942977765776
v -3.99999969912738608 3.5000000695453188 -4.99999942977765776
v -2.99999993754596512 -0.50000090797873816 0.99999991853952256
v -3.99999969912738608 -0.50000090797873816 0.99999991853952256
v -2.99999993754596512 3.49999909202120832 1.00000057022226229
v -3.99999969912738608 3.49999909202120832 1.00000057022226229
v -1.00000029517383381 -7.50000041921674488 -2.00000026823091658
v -2.00000017596454426 -7.50000041921674488 -2.00000026823091658
v -1.00000029517383381 -2.50000041921681152 -1.99999945362749136
v -2.00000017596454426 -2.50000041921681152 -1.99999945362749136
v -1.00000029517383381 -7.50000026822103472 2.0860629224017657E-07
v -2.00000017596454426 -7.50000026822103472 2.0860629224017657E-07
v -3.00000017596454426 -7.50000041921674488 -2.00000026823091658
v -3.00000017596454426 -7.49999979138387648 2.086063703998775E-07
v -5.67552547181549E-08 -7.50000041921674488 -2.00000026823091658
v -5.67552547181549E-08 -7.49999979138387648 2.086063703998775E-07
v -1.00000029517383381 -7.49999995430456144 1.00000020860635707
v -2.00000017596454426 -7.49999995430456144 1.00000020860635707
v 1.00000018166332438 -7.50000041921674488 -2.00000026823091658
v 2.00000018166332438 -7.50000041921674488 -2.00000026823091658
v 1.00000018166332438 -2.50000041921681152 -1.99999945362749136
v 2.00000018166332438 -2.50000041921681152 -1.99999945362749136
v 1.00000018166332438 -7.50000026822103472 2.0860629224017657E-07
v 2.00000018166332438 -7.50000026822103472 2.0860629224017657E-07
v 2.99999982403545568 -7.50000041921674488 -2.00000026823091658
v 2.99999982403545568 -7.49999979138387648 2.086063703998775E-07
v -5.67552547181549E-08 -7.50000041921674488 -2.00000026823091658
v -5.67552547181549E-08 -7.49999979138387648 2.086063703998775E-07
v 1.00000018166332438 -7.49999995430456144 1.00000020860635707
v 2.00000018166332438 -7.49999995430456144 1.00000020860635707
# 72 vertices

vn 0 1.629206850539683E-07 -0.99999999999998672
vn 0 1.629206850539683E-07 -0.99999999999998672
vn 0 1.629206850539683E-07 -0.99999999999998672
vn 0 1.629206850539683E-07 -0.99999999999998672
vn 0 -1.629206850539683E-07 0.99999999999998672
vn 0 -1.629206850539683E-07 0.99999999999998672
vn 0 -1.629206850539683E-07 0.99999999999998672
vn 0 -1.629206850539683E-07 0.99999999999998672
vn 0 -0.99999999999998672 -1.629206850539683E-07
vn 0 -0.99999999999998672 -1.629206850539683E-07
vn 0 -0.99999999999998672 -1.629206850539683E-07
vn 0 -0.99999999999998672 -1.629206850539683E-07
vn 1 0 0
vn 1 0 0
vn 1 0 0
vn 1 0 0
vn 0 0.99999999999998672 1.629206850539683E-07
vn 0 0.99999999999998672 1.629206850539683E-07
vn 0 0.99999999999998672 1.629206850539683E-07
vn 0 0.99999999999998672 1.629206850539683E-07
vn -1 0 0
vn -1 0 0
vn -1 0 0
vn -1 0 0
vn 0 1.629206850539683E-07 -0.99999999999998672
vn 0 1.629206850539683E-07 -0.99999999999998672
vn 0 1.629206850539683E-07 -0.99999999999998672
vn 0 1.629206850539683E-07 -0.99999999999998672
vn 0 -1.629206850539683E-07 0.99999999999998672
vn 0 -1.629206850539683E-07 0.99999999999998672
vn 0 -1.629206850539683E-07 0.99999999999998672
vn 0 -1.629206850539683E-07 0.99999999999998672
vn 0 -0.99999999999998672 -1.629206850539683E-07
vn 0 -0.99999999999998672 -1.629206850539683E-07
vn 0 -0.99999999999998672 -1.629206850539683E-07
vn 0 -0.99999999999998672 -1.629206850539683E-07
vn 1 0 0
vn 1 0 0
vn 1 0 0
vn 1 0 0
vn 0 0.99999999999998672 1.629206850539683E-07
vn 0 0.99999999999998672 1.629206850539683E-07
vn 0 0.99999999999998672 1.629206850539683E-07
vn 0 0.99999999999998672 1.629206850539683E-07
vn -1 0 0
vn -1 0 0
vn -1 0 0
vn -1 0 0
vn 0 -1.629206850539683E-07 0.99999999999998672
vn 0 -1.629206850539683E-07 0.99999999999998672
vn 0 -1.629206850539683E-07 0.99999999999998672
vn 0 -1.629206850539683E-07 0.99999999999998672
vn 0 -0.99999999999998672 -1.629206850539683E-07
vn 0 -0.99999999999998672 -1.629206850539683E-07
vn 0 -0.99999999999998672 -1.629206850539683E-07
vn 0 -0.99999999999998672 -1.629206850539683E-07
vn 1 0 0
vn 1 0 0
vn 1 0 0
vn 1 0 0
vn -1 0 0
vn -1 0 0
vn -1 0 0
vn -1 0 0
vn 0 1.629206850539683E-07 -0.99999999999998672
vn 0 1.629206850539683E-07 -0.99999999999998672
vn 0 1.629206850539683E-07 -0.99999999999998672
vn 0 1.629206850539683E-07 -0.99999999999998672
vn 0 -1.629206850539683E-07 0.99999999999998672
vn 0 -1.629206850539683E-07 0.99999999999998672
vn 0 -1.629206850539683E-07 0.99999999999998672
vn 0 -1.629206850539683E-07 0.99999999999998672
vn 0 -0.99999999999998672 -1.629206850539683E-07
vn 0 -0.99999999999998672 -1.629206850539683E-07
vn 0 -0.99999999999998672 -1.629206850539683E-07
vn 0 -0.99999999999998672 -1.629206850539683E-07
vn 1 0 0
vn 1 0 0
vn 1 0 0
vn 1 0 0
vn 0 0.99999999999998672 1.629206850539683E-07
vn 0 0.99999999999998672 1.629206850539683E-07
vn 0 0.99999999999998672 1.629206850539683E-07
vn 0 0.99999999999998672 1.629206850539683E-07
vn -1 0 0
vn -1 0 0
vn -1 0 0
vn -1 0 0
vn 0 1.629206850539683E-07 -0.99999999999998672
vn 0 1.629206850539683E-07 -0.99999999999998672
vn 0 1.629206850539683E-07 -0.99999999999998672
vn 0 1.629206850539683E-07 -0.99999999999998672
vn 0 -1.629206850539683E-07 0.99999999999998672
vn 0 -1.629206850539683E-07 0.99999999999998672
vn 0 -1.629206850539683E-07 0.99999999999998672
vn 0 -1.629206850539683E-07 0.99999999999998672
vn 0 -0.99999999999998672 -1.629206850539683E-07
vn 0 -0.99999999999998672 -1.629206850539683E-07
vn 0 -0.99999999999998672 -1.629206850539683E-07
vn 0 -0.99999999999998672 -1.629206850539683E-07
vn 1 0 0
vn 1 0 0
vn 1 0 0
vn 1 0 0
vn 0 0.99999999999998672 1.629206850539683E-07
vn 0 0.99999999999998672 1.629206850539683E-07
vn 0 0.99999999999998672 1.629206850539683E-07
vn 0 0.99999999999998672 1.629206850539683E-07
vn -1 0 0
vn -1 0 0
vn -1 0 0
vn -1 0 0
vn 0 1.629206850539683E-07 -0.99999999999998672
vn 0 1.629206850539683E-07 -0.99999999999998672
vn 0 1.629206850539683E-07 -0.99999999999998672
vn 0 1.629206850539683E-07 -0.99999999999998672
vn 0 -1.629206850539683E-07 0.99999999999998672
vn 0 -1.629206850539683E-07 0.99999999999998672
vn 0 -1.629206850539683E-07 0.99999999999998672
vn 0 -1.629206850539683E-07 0.99999999999998672
vn 0 -0.99999999999998672 -1.629206850539683E-07
vn 0 -0.99999999999998672 -1.629206850539683E-07
vn 0 -0.99999999999998672 -1.629206850539683E-07
vn 0 -0.99999999999998672 -1.629206850539683E-07
vn -1 0 0
vn -1 0 0
vn -1 0 0
vn -1 0 0
vn 0 0.99999999999998672 1.629206850539683E-07
vn 0 0.99999999999998672 1.629206850539683E-07
vn 0 0.99999999999998672 1.629206850539683E-07
vn 0 0.99999999999998672 1.629206850539683E-07
vn 1 0 0
vn 1 0 0
vn 1 0 0
vn 1 0 0
vn 0 -1.629206850539683E-07 0.99999999999998672
vn 0 -1.629206850539683E-07 0.99999999999998672
vn 0 -1.629206850539683E-07 0.99999999999998672
vn 0 -1.629206850539683E-07 0.99999999999998672
vn 0 1.00000000000002553 -7.549783720417215E-08
vn 0 1.00000000000002553 -7.549783720417215E-08
vn 0 1.00000000000002553 -7.549783720417215E-08
vn 0 1.00000000000002553 -7.549783720417215E-08
vn 2.384185791015625E-07 1.00000000000004507 -1.947070983332424E-07
vn 2.384185791015625E-07 1.00000000000004507 -1.947070983332424E-07
vn 2.384185791015625E-07 1.00000000000004507 -1.947070983332424E-07
vn 2.384185791015625E-07 1.00000000000004507 -1.947070983332424E-07
vn -2.3841852225814364E-07 1.00000000000004507 -1.9470706991153298E-07
vn -2.3841852225814364E-07 1.00000000000004507 -1.9470706991153298E-07
vn -2.3841852225814364E-07 1.00000000000004507 -1.9470706991153298E-07
vn -2.3841852225814364E-07 1.00000000000004507 -1.9470706991153298E-07
vn 0 1.00000000000006439 -3.1391647314915034E-07
vn 0 1.00000000000006439 -3.1391647314915034E-07
vn 0 1.00000000000006439 -3.1391647314915034E-07
vn 0 1.00000000000006439 -3.1391647314915034E-07
vn 0 -1.629206850539683E-07 0.99999999999998672
vn 0 -1.629206850539683E-07 0.99999999999998672
vn 0 -1.629206850539683E-07 0.99999999999998672
vn 0 -1.629206850539683E-07 0.99999999999998672
vn 0 1.00000000000002553 -7.549783720417215E-08
vn 0 1.00000000000002553 -7.549783720417215E-08
vn 0 1.00000000000002553 -7.549783720417215E-08
vn 0 1.00000000000002553 -7.549783720417215E-08
vn -2.384186643666908E-07 1.00000000000004507 -1.947070983332424E-07
vn -2.384186643666908E-07 1.00000000000004507 -1.947070983332424E-07
vn -2.384186643666908E-07 1.00000000000004507 -1.947070983332424E-07
vn -2.384186643666908E-07 1.00000000000004507 -1.947070983332424E-07
vn 2.3841852225814364E-07 1.00000000000004507 -1.947070983332424E-07
vn 2.3841852225814364E-07 1.00000000000004507 -1.947070983332424E-07
vn 2.3841852225814364E-07 1.00000000000004507 -1.947070983332424E-07
vn 2.3841852225814364E-07 1.00000000000004507 -1.947070983332424E-07
vn 0 1.00000000000006439 -3.1391647314915034E-07
vn 0 1.00000000000006439 -3.1391647314915034E-07
vn 0 1.00000000000006439 -3.1391647314915034E-07
vn 0 1.00000000000006439 -3.1391647314915034E-07
# 176 vertex normals

vt 0.1875 0.64066511392593384 0
vt 0.28095310926437376 0.64066511392593384 0
vt 0.28095310926437376 0.76567202806472784 0
vt 0.1875 0.76567202806472784 0
vt 0.09392890334129334 0.64066511392593384 0
vt 0.09393683075904846 0.76567202806472784 0
vt 0.1875 0.76567202806472784 0
vt 0.09392890334129334 0.76567202806472784 0
vt 0.09393683075904846 0.8593400120735168 0
vt 0.1875 0.76567202806472784 0
vt 0.1875 0.8593400120735168 0
vt 0.1875 0.76567202806472784 0
vt 0.28095310926437376 0.76567202806472784 0
vt 0.1875 0.8593400120735168 0
vt 0.28095310926437376 0.8593400120735168 0
vt 0.375 0.64066511392593384 0
vt 0.1875 0.64066511392593384 0
vt 0.09392891079187394 0.64066511392593384 0
vt 0.375 0.76567202806472784 0
vt 0.28095310926437376 0.76567202806472784 0
vt 0 0.64066511392593384 0
vt 0.28095310926437376 0.64066511392593384 0
vt 0.09392890334129334 0.76567202806472784 0
vt 0 0.76567202806472784 0
vt 0.48752155900001528 0.70313918590545656 0
vt 0.5 0.70313918590545656 0
vt 0.59354817867279056 0.64088141918182376 0
vt 0.59354817867279056 0.69999998807907104 0
vt 0.46840658783912656 0.70313918590545656 0
vt 0.46840658783912656 0.69999998807907104 0
vt 0.48750001192092896 0.796764612197876 0
vt 0.46840658783912656 0.796764612197876 0
vt 0.46840658783912656 0.64088141918182376 0
vt 0.37527301907539368 0.64088141918182376 0
vt 0.37527301907539368 0.69999998807907104 0
vt 0.3596477508544922 0.64088141918182376 0
vt 0.3596477508544922 0.69999998807907104 0
vt 0.5 0.69999998807907104 0
vt 0.5 0.64088141918182376 0
vt 0.48752155900001528 0.70313918590545656 0
vt 0.46840658783912656 0.69999998807907104 0
vt 0.46840658783912656 0.64088141918182376 0
vt 0.48750001192092896 0.796764612197876 0
vt 0.5 0.796764612197876 0
vt 0.5 0.69999998807907104 0
vt 0.5 0.64088141918182376 0
vt 0.37527301907539368 0.69999998807907104 0
vt 0.37527301907539368 0.64088141918182376 0
vt 0.25 0.875 0
vt 0.3125 0.875 0
vt 0.3125 0.9062694907188416 0
vt 0.25 0.9062694907188416 0
vt 0.25 0.9375 0
vt 0.3125 0.9375 0
vt 0.3125 0.9062694907188416 0
vt 0.25 0.9062694907188416 0
vt 0.34351482987403868 0.875 0
vt 0.34351482987403868 0.9062694907188416 0
vt 0.3125 0.9062694907188416 0
vt 0.3125 0.875 0
vt 0.21867811679840088 0.9062694907188416 0
vt 0.21867811679840088 0.875 0
vt 0.25 0.875 0
vt 0.25 0.9062694907188416 0
vt 0.40000000596046448 0.9687618017196656 0
vt 0.40000000596046448 0.9375 0
vt 0.25 0.9375 0
vt 0.25 0.9687618017196656 0
vt 0.34378138184547424 0.9687618017196656 0
vt 0.25 0.9375 0
vt 0.25 0.9687618017196656 0
vt 0.3125 0.9687618017196656 0
vt 0.25 0.9687618017196656 0
vt 0.3125 0.9375 0
vt 0.3125 0.9687618017196656 0
vt 0.25 1 0
vt 0.3125 1 0
vt 0.21883894503116608 0.9687618017196656 0
vt 0.21883894503116608 0.9375 0
vt 0.34378138184547424 0.9375 0
vt 0.34378138184547424 0.9687618017196656 0
vt 0.34378138184547424 0.9375 0
vt 0.375 0.9687618017196656 0
vt 0.3125 0.9687618017196656 0
vt 0.3125 1 0
vt 0.375 1 0
vt 0.3125 0.9687618017196656 0
vt 0.3125 0.9375 0
vt 0.04685181006789207 1 0
vt 0.69155073165893552 -0.43736386299133304 0
vt 0.04692922905087471 0.85944318771362304 0
vt 0.04692922532558441 0.95287477970123296 0
vt 0.10949958860874176 1 0
vt 0.04692922905087471 0.85944318771362304 0
vt 0.04692922532558441 0.95287477970123296 0
vt 0.10954423248767852 0.95287472009658816 0
vt 0.04692922532558441 0.95287477970123296 0
vt 0.109429232776165 0.85944318771362304 0
vt 0.109429232776165 0.95287472009658816 0
vt 0 0.95287472009658816 0
vt 0 0.85944318771362304 0
vt 0.15643684566020966 0.95287472009658816 0
vt 0.15643684566020966 0.85944318771362304 0
vt 0.97612214088439936 -0.43736386299133304 0
vt 0.21856316924095152 0.95287472009658816 0
vt 0.21856316924095152 0.85944318771362304 0
vt 0.97612214088439936 -0.22393524646759032 0
vt 0.69155073165893552 -0.22393524646759032 0
vt 0.15643686056137084 0.95287472009658816 0
vt 0.15643686056137084 0.85944318771362304 0
vt 0.1094292402267456 0.95287472009658816 0
vt 0.1094292402267456 0.85944318771362304 0
vt 0.48752155900001528 0.70313918590545656 0
vt 0.5 0.70313918590545656 0
vt 0.59354817867279056 0.64088141918182376 0
vt 0.59354817867279056 0.69999998807907104 0
vt 0.46840658783912656 0.70313918590545656 0
vt 0.46840658783912656 0.69999998807907104 0
vt 0.48750001192092896 0.796764612197876 0
vt 0.46840658783912656 0.796764612197876 0
vt 0.46840658783912656 0.64088141918182376 0
vt 0.37527301907539368 0.64088141918182376 0
vt 0.37527301907539368 0.69999998807907104 0
vt 0.3596477508544922 0.64088141918182376 0
vt 0.3596477508544922 0.69999998807907104 0
vt 0.5 0.69999998807907104 0
vt 0.5 0.64088141918182376 0
vt 0.48752155900001528 0.70313918590545656 0
vt 0.46840658783912656 0.69999998807907104 0
vt 0.46840658783912656 0.64088141918182376 0
vt 0.48750001192092896 0.796764612197876 0
vt 0.5 0.796764612197876 0
vt 0.5 0.69999998807907104 0
vt 0.5 0.64088141918182376 0
vt 0.37527301907539368 0.69999998807907104 0
vt 0.37527301907539368 0.64088141918182376 0
vt 0.53122174739837648 0.95316731929779056 0
vt 0.51561093330383304 0.95316731929779056 0
vt 0.5625 0.94999998807907104 0
vt 0.57499998807907104 0.875 0
vt 0.51561093330383304 0.98438906669616704 0
vt 0.53122174739837648 0.98438906669616704 0
vt 0.54683268070220944 0.98438906669616704 0
vt 0.54683268070220944 0.95316725969314576 0
vt 0.5 0.95316731929779056 0
vt 0.5 0.98438906669616704 0
vt 0.51561093330383304 1 0
vt 0.53122174739837648 1 0
vt 0.5625 0.875 0
vt 0.57499998807907104 0.94999998807907104 0
vt 0.53122174739837648 0.95316731929779056 0
vt 0.51561093330383304 0.95316731929779056 0
vt 0.5625 0.94999998807907104 0
vt 0.57499998807907104 0.875 0
vt 0.51561093330383304 0.98438906669616704 0
vt 0.53122174739837648 0.98438906669616704 0
vt 0.54683268070220944 0.98438906669616704 0
vt 0.54683268070220944 0.95316725969314576 0
vt 0.5 0.95316731929779056 0
vt 0.5 0.98438906669616704 0
vt 0.51561093330383304 1 0
vt 0.53122174739837648 1 0
vt 0.5625 0.875 0
vt 0.57499998807907104 0.94999998807907104 0
# 164 texture coords

g Chicken
usemtl 02 - Default
s 1
f 1/13/1 3/12/2 4/14/3 2/15/4
f 5/6/5 6/10/6 8/11/7 7/9/8
f 1/2/9 2/16/10 6/19/11 5/20/12
f 2/21/13 4/5/14 8/23/15 6/24/16
f 4/18/17 3/17/18 7/7/19 8/8/20
f 3/1/21 1/22/22 5/3/23 7/4/24
f 9/39/25 11/38/26 12/41/27 10/42/28
f 13/36/29 14/34/30 16/35/31 15/37/32
f 9/26/33 10/40/34 14/43/35 13/44/36
f 10/33/37 12/30/38 16/47/39 14/48/40
f 12/29/41 11/25/42 15/31/43 16/32/44
f 11/45/45 9/46/46 13/27/47 15/28/48
f 21/49/49 22/50/50 24/51/51 23/52/52
f 17/53/53 18/54/54 22/55/55 21/56/56
f 18/57/57 20/58/58 24/59/59 22/60/60
f 19/61/61 17/62/62 21/63/63 23/64/64
f 25/66/65 27/65/66 28/69/67 26/80/68
f 29/70/69 30/74/70 32/75/71 31/73/72
f 25/85/73 26/86/74 30/83/75 29/84/76
f 26/82/77 28/81/78 32/87/79 30/88/80
f 28/77/81 27/76/82 31/71/83 32/72/84
f 27/78/85 25/79/86 29/67/87 31/68/88
f 33/106/89 35/105/90 36/109/91 34/110/92
f 37/94/93 38/98/94 40/99/95 39/97/96
f 33/90/97 34/104/98 38/107/99 37/108/100
f 34/103/101 36/102/102 40/111/103 38/112/104
f 36/93/105 35/89/106 39/95/107 40/96/108
f 35/100/109 33/101/110 37/91/111 39/92/112
f 41/127/113 42/130/114 44/129/115 43/126/116
f 45/124/117 47/125/118 48/123/119 46/122/120
f 41/114/121 45/132/122 46/131/123 42/128/124
f 42/121/125 46/136/126 48/135/127 44/118/128
f 44/117/129 48/120/130 47/119/131 43/113/132
f 43/133/133 47/116/134 45/115/135 41/134/136
f 52/150/137 50/140/138 49/149/139 51/139/140
f 50/137/141 54/142/142 53/141/143 49/138/144
f 50/137/145 55/144/146 56/143/147 54/142/148
f 53/141/149 58/146/150 57/145/151 49/138/152
f 54/142/153 60/148/154 59/147/155 53/141/156
f 61/163/157 62/154/158 64/164/159 63/153/160
f 62/151/161 61/152/162 65/155/163 66/156/164
f 62/151/165 66/156/166 68/157/167 67/158/168
f 65/155/169 61/152/170 69/159/171 70/160/172
f 66/156/173 65/155/174 71/161/175 72/162/176
#44 polygons

