# Blender v2.79 (sub 0) OBJ File: ''
# www.blender.org
mtllib basic_hex.mtl
o Cylinder
v 0.019154 0.498136 1.000747
v -0.001113 -0.501658 0.999169
v 0.880456 0.481477 0.492927
v 0.860189 -0.518316 0.491349
v 0.871436 0.483238 -0.507031
v 0.851169 -0.516555 -0.508609
v 0.001113 0.501658 -0.999169
v -0.019154 -0.498136 -1.000747
v -0.860189 0.518316 -0.491349
v -0.880456 -0.481477 -0.492927
v -0.851169 0.516555 0.508609
v -0.871436 -0.483238 0.507031
vt 0.577351 0.750000
vt 0.577351 0.500000
vt 0.866026 0.500000
vt 0.866026 0.750000
vt 0.288675 0.500000
vt 0.577350 0.500000
vt 0.577350 0.625000
vt 0.288675 0.625000
vt 0.577351 0.875000
vt 0.288675 0.875000
vt 0.288675 1.000000
vt 0.000000 1.000000
vt 0.000000 0.875000
vt 0.288675 0.875000
vt 1.000000 0.125000
vt 1.000000 0.375000
vt 0.750000 0.500000
vt 0.500000 0.375000
vt 0.500000 0.125000
vt 0.750000 0.000000
vt 0.000000 0.625000
vt 0.288675 0.625000
vt 0.000000 0.500000
vt 0.288675 0.500000
vt 0.000000 0.125000
vt 0.250000 0.000000
vt 0.500000 0.125000
vt 0.500000 0.375000
vt 0.250000 0.500000
vt 0.000000 0.375000
vn 0.5077 -0.0117 0.8615
vn 0.9998 -0.0203 -0.0091
vn 0.4921 -0.0086 -0.8705
vn -0.5077 0.0117 -0.8615
vn -0.0203 -0.9998 -0.0016
vn -0.9998 0.0203 0.0091
vn -0.4921 0.0086 0.8705
vn 0.0203 0.9998 0.0016
usemtl Material.001
s off
f 1/1/1 2/2/1 4/3/1 3/4/1
f 3/5/2 4/6/2 6/7/2 5/8/2
f 5/8/3 6/7/3 8/9/3 7/10/3
f 7/11/4 8/12/4 10/13/4 9/14/4
f 4/15/5 2/16/5 12/17/5 10/18/5 8/19/5 6/20/5
f 9/14/6 10/13/6 12/21/6 11/22/6
f 11/22/7 12/21/7 2/23/7 1/24/7
f 1/25/8 3/26/8 5/27/8 7/28/8 9/29/8 11/30/8
